<?xml version="1.0" encoding="utf-8"?><!DOCTYPE svg PUBLIC "-//W3C//DTD SVG 1.1//EN" "http://www.w3.org/Graphics/SVG/1.1/DTD/svg11.dtd"><svg version="1.1" xmlns="http://www.w3.org/2000/svg" xmlns:xlink="http://www.w3.org/1999/xlink" width="18" height="18" viewBox="0 0 18 18" data-tags="moon"><g fill="#444" transform="scale(0.017578125 0.017578125)"><path d="M412.235 185.152c-14.306 47.097-18.306 97.292-11.278 147.723 20.805 149.596 139.666 268.681 288.972 289.515 16.055 2.251 32.306 3.388 48.334 3.388 34.055 0 67.333-4.944 99.111-14.612-38.361 126-150.306 223.333-282.889 239.5-14.444 1.778-29.028 2.667-43.333 2.667-97.472 0-190.5-41.972-255.195-115.166-65.556-74.167-94.972-169.916-82.86-269.584 16.165-132.846 113.332-245.028 239.138-283.431zM511.124 56.889c-20.612 0-41.584 1.388-62.777 4.263-201.557 27.307-363.39 191.39-387.973 393.682-33.668 276.86 181.111 512.277 450.777 512.277 18.777 0 37.806-1.14 57.083-3.5 201.888-24.638 365.668-186.75 392.917-388.695 2.944-21.778 4.334-43.305 4.251-64.5-0.11-33.166-27.444-55.305-56.638-55.305-11.89 0-24.11 3.694-34.917 11.778-37.806 28.332-84.722 45.111-135.584 45.111-10.722 0-21.611-0.75-32.638-2.277-98.556-13.778-178.444-93.833-192.194-192.569-8.834-63.445 8.5-122.667 42.722-168.542 23.584-37.362 1.444-91.541-43.445-91.723-0.5 0-1.028 0-1.582 0v0z" /></g></svg>